<?xml version="1.0" encoding="UTF-8"?>
<svg viewBox="0 0 192 192" width="192" height="192" xmlns="http://www.w3.org/2000/svg">
  <rect width="192" height="192" rx="24" fill="#ffef38"/>
  <g fill="#003da4">
    <path d="M81.2,130.5 L65.7,120.1 L139.4,70.4 L93.9,39.8 L72.5,54.2 L89.1,65.2 L50.8,90.8 L18.7,69.6 L96,18.1 L172.7,69.4 Z M110.3,60 L125.8,70.4 L52.1,120.1 L97.7,150.7 L119.1,136.3 L102.5,125.4 L140.9,99.8 L173,121 L95.5,172.4 L19,121.3 Z"/>
    <path d="M50.2,152 L34.4,141.2 L18.4,152 L18.6,172.8 Z M142,39.3 L157.9,50.1 L173.4,39.8 V18.5 Z"/>
  </g>
</svg>
